<svg width="60" height="60" viewBox="0 0 60 60" fill="none" xmlns="http://www.w3.org/2000/svg">
<circle cx="30" cy="30" r="30" fill="#262626"/>
<g clip-path="url(#clip0_225_284)">
<path d="M18.4615 30.0004C18.4615 23.6381 23.6377 18.4619 30 18.4619C32.5696 18.4619 35.0017 19.2886 37.0334 20.8527L34.3521 24.3358C33.0958 23.3687 31.5909 22.8575 30 22.8575C26.0614 22.8575 22.8572 26.0618 22.8572 30.0004C22.8572 33.9389 26.0614 37.1432 30 37.1432C33.1722 37.1432 35.8679 35.0649 36.7969 32.1982H30V27.8026H41.5385V30.0004C41.5385 36.3627 36.3623 41.5388 30 41.5388C23.6377 41.5388 18.4615 36.3627 18.4615 30.0004Z" fill="white"/>
</g>
<defs>
<clipPath id="clip0_225_284">
<rect width="23.0769" height="23.0769" fill="white" transform="translate(18.4615 18.4619)"/>
</clipPath>
</defs>
</svg>
