<svg width="60" height="60" viewBox="0 0 60 60" fill="none" xmlns="http://www.w3.org/2000/svg">
<circle cx="30" cy="30" r="30" fill="#FAE100"/>
<g clip-path="url(#clip0_225_286)">
<path d="M29.949 18.4619C23.0936 18.4619 17.5385 22.9058 17.5385 28.3906C17.5385 31.9589 19.8923 35.0894 23.4256 36.8379C23.1666 37.8178 22.4851 40.391 22.3493 40.9407C22.1808 41.6228 22.5957 41.6152 22.8673 41.4319C23.0811 41.2869 26.2673 39.0929 27.6429 38.1487C28.3898 38.2607 29.1594 38.3192 29.9465 38.3192C36.7993 38.3192 42.357 33.8754 42.357 28.3906C42.357 22.9058 36.8018 18.4619 29.949 18.4619Z" fill="#371D1E"/>
<path d="M21.2905 26.5633H22.568C22.568 26.5633 22.5756 30.1138 22.568 30.941C22.568 31.5442 23.8958 31.5518 23.8958 30.9486L23.9009 26.6091C23.9009 26.6091 24.3284 26.6117 25.1708 26.6117C25.9655 26.6117 25.9655 25.3467 25.1708 25.3467C24.2756 25.3467 21.2855 25.3213 21.2855 25.3213C20.5361 25.3213 20.5386 26.5608 21.2855 26.5608" fill="#FAE100"/>
<mask id="mask0_225_286" style="mask-type:luminance" maskUnits="userSpaceOnUse" x="20" y="25" width="6" height="7">
<path d="M21.2905 26.5633H22.568C22.568 26.5633 22.5756 30.1138 22.568 30.941C22.568 31.5442 23.8958 31.5518 23.8958 30.9486L23.9009 26.6091C23.9009 26.6091 24.3284 26.6117 25.1708 26.6117C25.9655 26.6117 25.9655 25.3467 25.1708 25.3467C24.2756 25.3467 21.2855 25.3213 21.2855 25.3213C20.5361 25.3213 20.5386 26.5608 21.2855 26.5608" fill="white"/>
</mask>
<g mask="url(#mask0_225_286)">
<path d="M25.968 25.3242H20.5386V31.5548H25.968V25.3242Z" fill="#FAE100"/>
</g>
<path d="M27.404 26.7927L28.1157 29.0477H26.6345L27.404 26.7927ZM26.6068 25.7365C26.2925 26.4364 25.1583 29.7451 24.7811 30.6232C24.5095 31.2569 25.6839 31.7736 25.9555 31.1398L26.212 30.2363H28.5482C28.5482 30.2363 28.4678 30.2745 28.7771 31.1017C29.0286 31.7736 30.2432 31.3078 29.9892 30.6359C29.6296 29.6764 28.3898 26.2251 28.1635 25.7365C28.0604 25.51 27.6857 25.3496 27.3235 25.3496C27.0243 25.3496 26.73 25.4616 26.6068 25.7365Z" fill="#FAE100"/>
<mask id="mask1_225_286" style="mask-type:luminance" maskUnits="userSpaceOnUse" x="24" y="25" width="7" height="7">
<path d="M27.404 26.7927L28.1157 29.0477H26.6345L27.404 26.7927ZM26.6068 25.7365C26.2925 26.4364 25.1583 29.7451 24.7811 30.6232C24.5095 31.2569 25.6839 31.7736 25.9555 31.1398L26.212 30.2363H28.5482C28.5482 30.2363 28.4678 30.2745 28.7771 31.1017C29.0286 31.7736 30.2432 31.3078 29.9892 30.6359C29.6296 29.6764 28.3898 26.2251 28.1635 25.7365C28.0604 25.51 27.6857 25.3496 27.3235 25.3496C27.0243 25.3496 26.73 25.4616 26.6068 25.7365Z" fill="white"/>
</mask>
<g mask="url(#mask1_225_286)">
<path d="M30.2458 25.3496H24.5095V31.7761H30.2458V25.3496Z" fill="#FAE100"/>
</g>
<path d="M30.4393 25.9452C30.4393 27.0701 30.4469 30.6944 30.4469 30.6944C30.4469 30.6944 30.3438 31.4147 30.9549 31.4147C31.566 31.4147 32.9189 31.4071 33.52 31.4071C34.121 31.4071 34.116 30.1141 33.5174 30.1141C32.9189 30.1141 31.8225 30.1065 31.8225 30.1065C31.8225 30.1065 31.8275 26.7545 31.825 25.9401C31.825 25.5456 31.4779 25.3496 31.1334 25.3496C30.7889 25.3496 30.4418 25.5481 30.4418 25.9426" fill="#FAE100"/>
<mask id="mask2_225_286" style="mask-type:luminance" maskUnits="userSpaceOnUse" x="30" y="25" width="4" height="7">
<path d="M30.4393 25.9452C30.4393 27.0701 30.4469 30.6944 30.4469 30.6944C30.4469 30.6944 30.3438 31.4147 30.9549 31.4147C31.566 31.4147 32.9189 31.4071 33.52 31.4071C34.121 31.4071 34.116 30.1141 33.5174 30.1141C32.9189 30.1141 31.8225 30.1065 31.8225 30.1065C31.8225 30.1065 31.8275 26.7545 31.825 25.9401C31.825 25.5456 31.4779 25.3496 31.1334 25.3496C30.7889 25.3496 30.4418 25.5481 30.4418 25.9426" fill="white"/>
</mask>
<g mask="url(#mask2_225_286)">
<path d="M34.1185 25.3496H30.3438V31.4122H34.1185V25.3496Z" fill="#FAE100"/>
</g>
<path d="M34.2795 25.7639C34.2921 26.2576 34.2644 30.7142 34.2644 31.0451C34.2644 31.5668 35.5771 31.5643 35.5746 31.0451C35.5746 30.4393 35.5746 29.2915 35.5746 29.2915L35.9594 28.9784L37.6443 31.3047C37.9838 31.7603 39.0551 30.9382 38.7156 30.4826L36.9276 28.0978C36.9276 28.0978 38.1422 26.7692 38.62 26.2882C38.8992 26.0082 38.0341 25.125 37.7549 25.4076C37.4833 25.6799 35.5822 27.6066 35.5822 27.6066C35.5822 27.6066 35.5998 26.3976 35.5822 25.7282C35.5746 25.4737 35.2678 25.3516 34.9535 25.3516C34.6165 25.3516 34.2719 25.4915 34.2795 25.7639Z" fill="#FAE100"/>
<mask id="mask3_225_286" style="mask-type:luminance" maskUnits="userSpaceOnUse" x="34" y="25" width="5" height="7">
<path d="M34.2795 25.7639C34.2921 26.2576 34.2644 30.7142 34.2644 31.0451C34.2644 31.5668 35.5771 31.5643 35.5746 31.0451C35.5746 30.4393 35.5746 29.2915 35.5746 29.2915L35.9594 28.9784L37.6443 31.3047C37.9838 31.7603 39.0551 30.9382 38.7156 30.4826L36.9276 28.0978C36.9276 28.0978 38.1422 26.7692 38.62 26.2882C38.8992 26.0082 38.0341 25.125 37.7549 25.4076C37.4833 25.6799 35.5822 27.6066 35.5822 27.6066C35.5822 27.6066 35.5998 26.3976 35.5822 25.7282C35.5746 25.4737 35.2678 25.3516 34.9535 25.3516C34.6165 25.3516 34.2719 25.4915 34.2795 25.7639Z" fill="white"/>
</mask>
<g mask="url(#mask3_225_286)">
<path d="M39.0576 25.1279H34.2644V31.7581H39.0576V25.1279Z" fill="#FAE100"/>
</g>
</g>
<defs>
<clipPath id="clip0_225_286">
<rect width="24.8186" height="23.0769" fill="white" transform="translate(17.5385 18.4619)"/>
</clipPath>
</defs>
</svg>
